<svg width="150" height="54" viewBox="0 0 150 54" fill="none" xmlns="http://www.w3.org/2000/svg">
<g clip-path="url(#clip0_55_1373)">
<path d="M69.3618 24.7976C67.9482 24.7976 67.0221 24.2127 66.5834 23.0916L66.4859 22.8966L65.4136 23.4328L65.4623 23.579C66.096 25.1388 67.4121 25.9675 69.3618 25.9675C69.8493 25.9675 70.3855 25.9188 70.8729 25.7725C72.2865 25.3338 72.9689 24.2127 72.9689 22.9941C72.9689 21.1905 71.4091 20.5569 69.9468 20.0694L68.9232 19.6795C68.0945 19.387 67.1683 18.8996 67.1683 17.8759C67.1683 16.7548 68.0457 16.1699 69.3618 16.1699C70.3367 16.1699 71.1166 16.6086 71.5066 17.3397L71.6041 17.486L72.6765 16.9498L72.579 16.8035C71.8966 15.6824 70.9217 15 69.3618 15C68.8744 15 68.4357 15.0487 67.997 15.195C66.6322 15.6337 65.9497 16.7061 65.9497 17.8759C65.9497 19.582 67.4608 20.3619 68.9232 20.8493L69.8005 21.1418C70.8242 21.5318 71.7503 21.9705 71.7503 22.9453C71.6528 24.2127 70.7754 24.7976 69.3618 24.7976Z" fill="black"/>
<path d="M87.9333 23.579C87.1046 24.3589 86.1297 24.8464 84.8624 24.8464C83.595 24.8464 82.6201 24.4077 81.7915 23.579C80.9141 22.7016 80.5241 21.678 80.5241 20.5081C80.5241 19.3383 80.9141 18.3146 81.7915 17.4372C82.6201 16.6086 83.595 16.1699 84.8624 16.1699C87.2996 16.1699 89.2006 18.0709 89.2006 20.5081C89.2006 21.6292 88.8107 22.7016 87.9333 23.579ZM84.8624 15C83.2538 15 81.9377 15.5849 80.9141 16.6086C79.793 17.7297 79.3055 18.997 79.2568 20.4594C79.2568 21.9217 79.7442 23.2378 80.8653 24.3589C81.889 25.3826 83.2051 25.9675 84.8136 25.9675C86.4222 25.9675 87.7383 25.3826 88.7619 24.3589C89.883 23.2378 90.3705 21.9217 90.3705 20.4594C90.3705 18.997 89.883 17.681 88.7619 16.6086C87.787 15.6337 86.4709 15 84.8624 15Z" fill="black"/>
<path d="M103.532 22.2145C103.532 24.0181 102.313 24.8467 100.656 24.8467C98.9495 24.8467 97.8284 23.9206 97.8284 22.2145V15.1953H96.561V22.2145C96.561 23.7743 97.4384 25.2854 98.9982 25.7729C99.5344 25.9678 100.071 26.0166 100.656 26.0166C101.777 26.0166 102.898 25.7241 103.727 24.8955C104.409 24.1643 104.75 23.2382 104.75 22.2145V15.1953H103.483L103.532 22.2145Z" fill="black"/>
<path d="M116.059 20.7522H113.183V16.3652H116.059C117.278 16.3652 118.252 17.3401 118.252 18.5587C118.252 19.7773 117.278 20.7522 116.059 20.7522ZM118.496 20.9471C119.179 20.2647 119.52 19.4848 119.52 18.5587C119.52 16.6577 117.96 15.1953 116.108 15.1953H111.964V25.8704H113.232V21.922H116.205L118.447 25.8704H119.812L117.424 21.6296C117.814 21.4833 118.155 21.2396 118.496 20.9471Z" fill="black"/>
<path d="M129.513 16.5599C130 16.3649 130.585 16.2187 131.219 16.2187C132.827 16.2187 134.143 16.9986 134.972 18.3634L136.044 17.7298C135.459 16.7549 134.484 15.9262 133.412 15.4875C132.778 15.1951 131.999 15.0488 131.219 15.0488C129.659 15.0488 128.343 15.585 127.27 16.6574C126.198 17.7298 125.662 18.9971 125.662 20.5082C125.662 22.7505 126.978 24.7002 129.025 25.5776C129.659 25.8701 130.39 26.0163 131.219 26.0163C133.217 26.0163 135.021 25.0414 136.044 23.3354L134.972 22.7017C134.143 24.0666 132.778 24.8464 131.219 24.8464C130.049 24.8464 129.025 24.4078 128.148 23.5791C127.319 22.7504 126.88 21.7268 126.88 20.5082C126.832 18.8022 127.904 17.2423 129.513 16.5599Z" fill="black"/>
<path d="M142.576 25.9192H149.254V24.7493H143.843V21.1909H149.059V20.0211L143.843 19.9723V16.414H149.254V15.2441H142.625L142.576 25.9192Z" fill="black"/>
<path d="M67.8508 32.6947C68.3383 32.4997 68.9232 32.3535 69.5569 32.3535C71.1654 32.3535 72.4815 33.1334 73.3102 34.4982L74.3826 33.8645C73.7976 32.8896 72.8228 32.061 71.7504 31.6223C71.1167 31.3298 70.3368 31.1836 69.5569 31.1836C67.9971 31.1836 66.6809 31.7198 65.6086 32.7922C64.5362 33.8646 64 35.1319 64 36.643C64 38.8852 65.3161 40.835 67.3634 41.7124C67.9971 42.0049 68.7282 42.1511 69.5569 42.1511C71.5554 42.1511 73.3589 41.1762 74.3826 39.4701L73.3102 38.8365C72.4815 40.2013 71.1167 40.9812 69.5569 40.9812C68.387 40.9812 67.3634 40.5425 66.486 39.7139C65.6573 38.8852 65.2186 37.8616 65.2186 36.643C65.1699 34.9369 66.2423 33.3771 67.8508 32.6947Z" fill="black"/>
<path d="M87.8845 39.7617C87.0559 40.5416 86.081 41.0291 84.8136 41.0291C83.5463 41.0291 82.5714 40.5904 81.7427 39.7617C80.8653 38.8843 80.4754 37.8607 80.4754 36.6908C80.4754 35.521 80.8653 34.4973 81.7427 33.6199C82.5714 32.84 83.5463 32.3526 84.8136 32.3526C87.2509 32.3526 89.1519 34.2536 89.1519 36.6908C89.1519 37.8607 88.7619 38.9331 87.8845 39.7617ZM84.8624 31.2314C83.2538 31.2314 81.9377 31.8164 80.9141 32.84C79.793 33.9611 79.3055 35.2772 79.2568 36.6908C79.2568 38.1532 79.7442 39.4693 80.8653 40.5904C81.889 41.614 83.2051 42.1989 84.8136 42.1989C86.4222 42.1989 87.7383 41.614 88.7619 40.5904C89.883 39.4693 90.3705 38.1531 90.3705 36.7396C90.3705 35.2772 89.883 33.9611 88.7619 32.8887C87.787 31.8164 86.4709 31.2314 84.8624 31.2314Z" fill="black"/>
<path d="M26.5606 26.4996V17.4643C24.3472 17.343 22.5887 15.4935 22.5887 13.2498C22.5887 11.0061 24.3775 9.15659 26.5909 9.06563V0.0302734C19.3747 0.151553 13.5533 6.00332 13.5533 13.2498C13.523 20.466 19.3444 26.348 26.5606 26.4996Z" fill="#F9DC5F"/>
<path d="M31.2902 12.795L39.3857 8.61088C37.5361 3.15328 33.5642 0.36384 27.3486 0V9.03536C29.4104 9.15664 31.078 10.7636 31.2902 12.795Z" fill="#F9DC5F"/>
<path d="M27.4395 26.4389H36.4748C36.5961 24.2256 38.4153 22.467 40.6893 22.467C42.933 22.467 44.7825 24.2559 44.8735 26.4692H53.9088C53.7876 19.2531 47.9358 13.4316 40.6893 13.4316C33.4732 13.4316 27.5911 19.2228 27.4395 26.4389Z" fill="#F9DC5F"/>
<path d="M41.1748 31.1994L45.3589 39.2949C50.8165 37.4453 53.606 33.5037 53.9698 27.2578H44.9344C44.7828 29.3196 43.1759 30.9872 41.1748 31.1994Z" fill="#F9DC5F"/>
<path d="M27.4395 27.3789V36.4143C29.6529 36.5356 31.4114 38.3548 31.4114 40.6288C31.4114 42.8724 29.6226 44.722 27.4092 44.8129V53.8483C34.6254 53.727 40.4468 47.8752 40.4468 40.6288C40.4771 33.3823 34.6557 27.5002 27.4395 27.3789Z" fill="#F9DC5F"/>
<path d="M22.6795 41.084L14.584 45.2681C16.4335 50.7257 20.4055 53.5152 26.6211 53.879V44.8437C24.5896 44.6921 22.922 43.1154 22.6795 41.084Z" fill="#F9DC5F"/>
<path d="M26.4996 27.3789H17.4643C17.343 29.5923 15.4935 31.3812 13.2498 31.3509C11.0061 31.3509 9.15659 29.562 9.06563 27.3486H0.0302734C0.151553 34.5648 6.00333 40.3862 13.2498 40.3862C20.4963 40.4166 26.3784 34.5951 26.4996 27.3789Z" fill="#F9DC5F"/>
<path d="M12.795 22.6492L8.61087 14.5537C3.15327 16.4032 0.36384 20.3448 0 26.5908H9.03536C9.18696 24.529 10.7636 22.8614 12.795 22.6492Z" fill="#F9DC5F"/>
</g>
<defs>
<clipPath id="clip0_55_1373">
<rect width="150" height="54" fill="white"/>
</clipPath>
</defs>
</svg>
